<svg width="139" height="99" viewBox="0 0 139 99" fill="none" xmlns="http://www.w3.org/2000/svg">
<path d="M58.3431 25.2062L60.2322 4.83297L42.7281 16.1909L42.9438 19.535L46.1087 18.1427L46.6463 21.6726L50.4551 20.6521L50.9927 24.1821L54.6405 23.0685L54.8562 26.4126L58.3431 25.2062Z" fill="#E2A67F" stroke="black"/>
<path d="M21.5383 88.9538L58.3431 25.2061L54.8562 26.4125L54.6406 23.0684L50.9927 24.1819L50.4551 20.6519L46.6463 21.6725L46.1087 18.1425L42.9438 19.5348L42.7281 16.1907L5.76234 79.8456L21.5383 88.9538Z" fill="#FFCB30" stroke="black"/>
<path d="M54.6405 23.0684L54.8562 26.4125L19.4455 87.7456L15.582 85.515L50.9927 24.1819L54.6405 23.0684Z" fill="#010101" stroke="black"/>
<path d="M46.1087 18.1425L46.6463 21.6725L11.2357 83.0056L7.53316 80.8679L42.9438 19.5348L46.1087 18.1425Z" fill="black" stroke="black"/>
<path d="M19.6795 92.1734L21.5383 88.9539L5.76237 79.8456L3.90354 83.0652L19.6795 92.1734Z" fill="#D9D9D9" stroke="black"/>
<path d="M4.28816 83.4354C2.55491 87.0135 4.14242 91.6406 8.13802 93.9475C12.1336 96.2544 16.9346 95.3156 19.1667 92.0255L4.28816 83.4354Z" fill="#E28686" stroke="black"/>
<path d="M56.4217 11.4332L59.5799 11.5395L60.2323 4.83305L54.5896 8.6583L56.4217 11.4332Z" fill="black" stroke="black"/>
<path d="M44.2784 39.9146V35.3507H65.7812V39.9146H57.7656V61.5325H52.294V39.9146H44.2784ZM74.8847 61.916C72.8989 61.916 71.1815 61.4941 69.7327 60.6504C68.2923 59.7981 67.1801 58.6134 66.396 57.0964C65.6119 55.5708 65.2199 53.8024 65.2199 51.791C65.2199 49.7626 65.6119 47.9899 66.396 46.4728C67.1801 44.9472 68.2923 43.7626 69.7327 42.9188C71.1815 42.0666 72.8989 41.6404 74.8847 41.6404C76.8705 41.6404 78.5835 42.0666 80.0239 42.9188C81.4727 43.7626 82.5892 44.9472 83.3733 46.4728C84.1574 47.9899 84.5494 49.7626 84.5494 51.791C84.5494 53.8024 84.1574 55.5708 83.3733 57.0964C82.5892 58.6134 81.4727 59.7981 80.0239 60.6504C78.5835 61.4941 76.8705 61.916 74.8847 61.916ZM74.9102 57.6972C75.8137 57.6972 76.5679 57.4416 77.173 56.9302C77.7781 56.4103 78.2341 55.7029 78.5409 54.808C78.8563 53.9132 79.0139 52.8947 79.0139 51.7526C79.0139 50.6106 78.8563 49.5921 78.5409 48.6972C78.2341 47.8024 77.7781 47.095 77.173 46.5751C76.5679 46.0552 75.8137 45.7953 74.9102 45.7953C73.9983 45.7953 73.2313 46.0552 72.6091 46.5751C71.9955 47.095 71.531 47.8024 71.2156 48.6972C70.9088 49.5921 70.7554 50.6106 70.7554 51.7526C70.7554 52.8947 70.9088 53.9132 71.2156 54.808C71.531 55.7029 71.9955 56.4103 72.6091 56.9302C73.2313 57.4416 73.9983 57.6972 74.9102 57.6972ZM102.938 61.8521C101.447 61.8521 100.096 61.4686 98.8859 60.7015C97.6842 59.9259 96.7297 58.7882 96.0223 57.2882C95.3234 55.7796 94.974 53.9302 94.974 51.7399C94.974 49.4899 95.3362 47.6191 96.0606 46.1276C96.7851 44.6276 97.7481 43.5069 98.9498 42.7654C100.16 42.0154 101.485 41.6404 102.926 41.6404C104.025 41.6404 104.941 41.8279 105.674 42.2029C106.416 42.5694 107.012 43.0296 107.464 43.5836C107.924 44.1291 108.274 44.666 108.512 45.1944H108.679V35.3507H114.112V61.5325H108.742V58.3876H108.512C108.257 58.933 107.894 59.4742 107.426 60.0112C106.965 60.5396 106.365 60.9785 105.623 61.3279C104.89 61.6774 103.995 61.8521 102.938 61.8521ZM104.664 57.5183C105.542 57.5183 106.284 57.2796 106.889 56.8024C107.502 56.3166 107.971 55.639 108.295 54.7697C108.627 53.9004 108.794 52.8819 108.794 51.7143C108.794 50.5467 108.632 49.5325 108.308 48.6717C107.984 47.8109 107.515 47.1461 106.902 46.6774C106.288 46.2086 105.542 45.9742 104.664 45.9742C103.769 45.9742 103.015 46.2171 102.402 46.7029C101.788 47.1887 101.323 47.862 101.008 48.7228C100.693 49.5836 100.535 50.5808 100.535 51.7143C100.535 52.8563 100.693 53.8663 101.008 54.7441C101.332 55.6134 101.796 56.2953 102.402 56.7896C103.015 57.2754 103.769 57.5183 104.664 57.5183ZM127.102 61.916C125.116 61.916 123.398 61.4941 121.95 60.6504C120.509 59.7981 119.397 58.6134 118.613 57.0964C117.829 55.5708 117.437 53.8024 117.437 51.791C117.437 49.7626 117.829 47.9899 118.613 46.4728C119.397 44.9472 120.509 43.7626 121.95 42.9188C123.398 42.0666 125.116 41.6404 127.102 41.6404C129.087 41.6404 130.8 42.0666 132.241 42.9188C133.69 43.7626 134.806 44.9472 135.59 46.4728C136.374 47.9899 136.766 49.7626 136.766 51.791C136.766 53.8024 136.374 55.5708 135.59 57.0964C134.806 58.6134 133.69 59.7981 132.241 60.6504C130.8 61.4941 129.087 61.916 127.102 61.916ZM127.127 57.6972C128.031 57.6972 128.785 57.4416 129.39 56.9302C129.995 56.4103 130.451 55.7029 130.758 54.808C131.073 53.9132 131.231 52.8947 131.231 51.7526C131.231 50.6106 131.073 49.5921 130.758 48.6972C130.451 47.8024 129.995 47.095 129.39 46.5751C128.785 46.0552 128.031 45.7953 127.127 45.7953C126.215 45.7953 125.448 46.0552 124.826 46.5751C124.212 47.095 123.748 47.8024 123.433 48.6972C123.126 49.5921 122.972 50.6106 122.972 51.7526C122.972 52.8947 123.126 53.9132 123.433 54.808C123.748 55.7029 124.212 56.4103 124.826 56.9302C125.448 57.4416 126.215 57.6972 127.127 57.6972ZM45.2756 91.5325V65.3507H50.8111V86.9685H62.0355V91.5325H45.2756ZM65.2391 91.5325V71.8961H70.6851V91.5325H65.2391ZM67.9749 69.3649C67.1652 69.3649 66.4706 69.0964 65.8911 68.5595C65.32 68.014 65.0345 67.362 65.0345 66.6035C65.0345 65.8535 65.32 65.21 65.8911 64.6731C66.4706 64.1276 67.1652 63.8549 67.9749 63.8549C68.7845 63.8549 69.4749 64.1276 70.0459 64.6731C70.6254 65.21 70.9152 65.8535 70.9152 66.6035C70.9152 67.362 70.6254 68.014 70.0459 68.5595C69.4749 69.0964 68.7845 69.3649 67.9749 69.3649ZM91.0257 77.4955L86.0399 77.8024C85.9547 77.3762 85.7715 76.9927 85.4902 76.6518C85.209 76.3024 84.8382 76.0254 84.378 75.8208C83.9263 75.6078 83.3851 75.5012 82.7544 75.5012C81.9107 75.5012 81.199 75.6802 80.6195 76.0382C80.0399 76.3876 79.7502 76.8563 79.7502 77.4444C79.7502 77.9132 79.9377 78.3095 80.3127 78.6333C80.6877 78.9572 81.3311 79.2171 82.2431 79.4132L85.797 80.1291C87.7061 80.5211 89.1294 81.1518 90.0669 82.0211C91.0044 82.8904 91.4732 84.0325 91.4732 85.4472C91.4732 86.7342 91.0939 87.8634 90.3354 88.835C89.5854 89.8066 88.5541 90.5651 87.2416 91.1106C85.9377 91.6475 84.4334 91.916 82.7289 91.916C80.1294 91.916 78.0584 91.3748 76.5158 90.2924C74.9817 89.2015 74.0826 87.7186 73.8184 85.8435L79.1749 85.5623C79.3368 86.3549 79.7289 86.96 80.351 87.3776C80.9732 87.7867 81.7701 87.9913 82.7416 87.9913C83.6962 87.9913 84.4632 87.808 85.0428 87.4416C85.6309 87.0666 85.9291 86.585 85.9377 85.997C85.9291 85.5026 85.7203 85.0978 85.3113 84.7825C84.9022 84.4586 84.2715 84.2114 83.4192 84.041L80.0186 83.3634C78.101 82.9799 76.6735 82.3151 75.736 81.3691C74.807 80.4231 74.3425 79.2171 74.3425 77.7512C74.3425 76.4899 74.6834 75.4032 75.3652 74.4913C76.0556 73.5793 77.0229 72.8762 78.2672 72.3819C79.5201 71.8876 80.986 71.6404 82.6649 71.6404C85.1451 71.6404 87.0968 72.1646 88.5201 73.2129C89.9519 74.2612 90.7871 75.6887 91.0257 77.4955ZM104.987 71.8961V75.987H93.1618V71.8961H104.987ZM95.8465 67.1916H101.293V85.4984C101.293 86.0012 101.369 86.3933 101.523 86.6745C101.676 86.9472 101.889 87.139 102.162 87.2498C102.443 87.3606 102.767 87.416 103.133 87.416C103.389 87.416 103.645 87.3947 103.9 87.3521C104.156 87.3009 104.352 87.2626 104.489 87.237L105.345 91.2896C105.072 91.3748 104.689 91.4728 104.195 91.5836C103.7 91.7029 103.099 91.7754 102.392 91.8009C101.079 91.8521 99.9289 91.6774 98.9402 91.2768C97.9601 90.8762 97.1973 90.2541 96.6519 89.4103C96.1064 88.5666 95.838 87.5012 95.8465 86.2143V67.1916Z" fill="white"/>
</svg>
